<svg width="40" height="40" viewBox="0 0 40 40" fill="none" xmlns="http://www.w3.org/2000/svg">
<circle cx="20" cy="20" r="20" fill="#0D6EFD"/>
<path d="M15 19V14C15 11 17 9 20 9C23 9 25 11 25 14V19M20 23V27M20 31C21.8565 31 23.637 30.2625 24.9497 28.9497C26.2625 27.637 27 25.8565 27 24C27 22.1435 26.2625 20.363 24.9497 19.0503C23.637 17.7375 21.8565 17 20 17C18.1435 17 16.363 17.7375 15.0503 19.0503C13.7375 20.363 13 22.1435 13 24C13 25.8565 13.7375 27.637 15.0503 28.9497C16.363 30.2625 18.1435 31 20 31ZM20 24C20.2652 24 20.5196 23.8946 20.7071 23.7071C20.8946 23.5196 21 23.2652 21 23C21 22.7348 20.8946 22.4804 20.7071 22.2929C20.5196 22.1054 20.2652 22 20 22C19.7348 22 19.4804 22.1054 19.2929 22.2929C19.1054 22.4804 19 22.7348 19 23C19 23.2652 19.1054 23.5196 19.2929 23.7071C19.4804 23.8946 19.7348 24 20 24Z" stroke="white" stroke-width="2"/>
</svg>
